<svg width="559" height="110" viewBox="0 0 559 110" fill="none" xmlns="http://www.w3.org/2000/svg">
<g clip-path="url(#clip0_2_282)">
<path d="M53.7206 20.8841C57.1757 20.3161 60.6641 19.2468 64.086 19.3136C68.4381 19.4139 72.9564 19.9151 77.1092 21.1514C85.5477 23.6909 89.9662 30.2401 90.2653 39.1283C90.4978 46.5797 88.5709 53.3294 84.7503 59.6782C81.1623 65.6593 79.8999 72.3422 79.8666 79.2255C79.8666 85.5074 79.6673 91.7893 77.7404 97.8039C76.8102 100.778 75.3484 103.651 73.7537 106.325C71.86 109.466 68.8036 110.568 65.6475 109.699C62.9232 108.964 60.9963 106.291 60.8302 102.749C60.6973 100.009 60.8966 97.2359 60.797 94.4625C60.498 87.6794 59.2355 81.0967 56.2123 74.9819C55.2488 73.0105 54.0861 71.1059 51.5944 71.0056C48.9698 70.9054 47.2755 72.409 46.0462 74.6478C43.023 80.228 41.9931 86.3094 41.6277 92.5245C41.3951 96.2669 41.4948 100.043 41.229 103.818C41.0629 106.592 39.6675 108.797 36.9433 109.599C33.9533 110.468 31.2623 109.8 29.1693 107.26C26.744 104.286 24.95 100.911 24.3188 97.169C23.3553 91.5554 22.3919 85.875 22.3254 80.1946C22.2258 72.008 20.5314 64.5566 16.2457 57.5396C12.0929 50.7565 10.9966 43.2049 12.1926 35.3859C13.3886 27.5001 19.8005 21.7195 27.9733 19.9151C38.0729 17.6763 46.1791 21.5524 53.8203 27.3665C55.3153 28.5026 56.7771 29.7055 58.1724 30.9418C59.2688 31.9443 60.4315 32.646 61.6608 31.3428C62.9897 29.906 62.0262 28.7365 60.8966 27.7675C59.0694 26.197 57.209 24.6599 55.3485 23.1229C54.7505 22.6217 54.1857 22.087 53.5877 21.5858L53.6542 20.9175L53.7206 20.8841ZM39.5679 64.2225C41.0961 64.1223 41.827 63.1867 41.9599 61.6162C42.3586 55.9023 44.1526 51.358 50.7306 50.4558C51.4615 50.3556 52.4914 48.9856 52.5246 48.1836C52.5246 47.4151 51.4615 46.5463 50.7638 45.8446C50.4648 45.5773 49.8668 45.6107 49.4349 45.5105C46.4449 44.9424 44.1858 43.4388 43.322 40.3981C42.7904 38.5269 42.3253 36.6223 42.0263 34.7176C41.7938 33.214 41.1293 32.2784 39.6343 32.2784C38.1393 32.2784 37.3752 33.214 37.1759 34.6842C36.9765 36.2213 36.744 37.7583 36.3453 39.2286C35.3154 42.9042 33.1892 45.4436 29.1693 45.8446C27.7739 45.9783 26.5447 46.4127 26.5115 48.0166C26.5115 49.6873 27.6743 50.4892 29.2357 50.6563C32.1925 51.0238 34.4848 52.5275 35.6144 55.2341C36.445 57.2389 36.7772 59.4777 37.1759 61.6162C37.4416 63.053 37.94 64.022 39.5679 64.2225Z" fill="#153A5E"/>
<path d="M480.562 61.4154C477.904 65.7927 475.545 69.6688 473.187 73.5782C471.725 75.9841 470.263 78.4233 468.934 80.896C468.17 82.3328 467.472 84.1372 468.934 85.3401C470.396 86.4762 472.024 85.4069 473.02 84.2708C476.343 80.6287 479.532 76.8194 482.755 73.077C485.944 69.368 488.934 65.492 492.356 62.0169C494.416 59.9118 497.24 60.981 498.037 63.8881C498.336 65.0242 498.17 66.2605 498.137 67.4634C498.137 67.9646 497.871 68.4658 497.605 69.4683C499.366 67.4634 500.794 65.8261 502.289 64.2222C502.987 63.4871 503.751 62.8188 504.548 62.2508C506.907 60.5801 509.2 60.4464 511.093 61.8164C512.887 63.1195 513.95 66.2605 512.854 68.5995C511.226 72.0412 509.2 75.3158 507.406 78.6906C506.542 80.2945 505.645 81.865 505.08 83.5691C504.548 85.173 505.645 86.2089 507.14 85.5406C508.635 84.8723 510.03 83.8364 511.193 82.7004C516.243 77.6882 520.13 71.8073 523.585 65.6256C523.817 65.2246 524.05 64.7903 524.283 64.3893C526.209 61.1815 527.771 60.5801 531.924 61.6159C531.492 62.4847 531.126 63.2866 530.661 64.0551C527.439 69.4014 524.183 74.7477 520.994 80.1274C520.562 80.8626 520.097 81.6979 519.997 82.5333C519.897 83.4355 519.897 84.8055 520.429 85.2398C520.994 85.7076 522.322 85.5406 523.186 85.2398C524.083 84.9391 525.013 84.2708 525.612 83.5357C528.734 79.7933 531.891 76.0509 534.814 72.108C538.834 66.7283 543.618 62.5181 550.329 61.0144C553.352 60.3462 554.947 61.6827 555.013 64.8237C555.08 68.2654 553.718 71.1056 551.259 73.4446C549.831 74.8146 547.837 74.9148 546.94 73.8456C546.043 72.7429 546.409 70.8383 547.937 69.6019C549.066 68.6663 550.395 67.9646 551.591 67.0959C552.189 66.6615 552.954 66.2271 553.153 65.6256C553.452 64.7568 553.684 63.4537 553.253 62.8522C552.854 62.2842 551.326 61.9835 550.628 62.3176C549.033 63.0527 547.405 64.0217 546.176 65.2915C542.821 68.8 539.997 72.7429 538.236 77.3206C537.671 78.7909 537.439 80.4616 537.405 82.0321C537.405 84.8055 539 86.2089 541.691 85.6742C543.352 85.3401 545.013 84.5716 546.409 83.6025C550.562 80.7957 553.817 77.0533 556.841 73.077C557.339 72.4087 557.937 71.8073 558.502 71.2058L558.967 71.5065C558.734 72.0078 558.635 72.5758 558.269 72.9434C554.615 76.7526 550.927 80.5618 547.239 84.3377C546.674 84.9057 545.944 85.2733 545.213 85.6408C539.233 88.7818 533.518 85.6408 532.854 78.8911C532.821 78.4901 532.788 78.1226 532.754 77.4877C530.661 79.7599 528.734 81.8316 526.774 83.9367C526.608 84.1372 526.376 84.2708 526.143 84.4379C523.95 86.2757 521.592 87.8462 518.701 86.2757C515.911 84.772 515.612 82.1323 516.11 79.8267C515.014 80.7289 513.651 81.8984 512.223 83.0345C510.994 84.0703 509.764 85.1062 508.502 86.0752C505.346 88.4476 501.392 85.574 501.093 82.2994C500.894 79.9938 501.392 77.9221 502.655 75.9841C504.449 73.2441 506.176 70.4373 507.937 67.6305C508.203 67.2295 508.502 66.8619 508.668 66.4276C509.166 65.1912 510.628 63.9215 509.266 62.6183C507.871 61.3152 506.343 62.3176 505.047 63.1864C501.127 65.8595 498.502 69.7022 495.911 73.5448C493.452 77.2204 491.193 81.063 488.934 84.8723C488.17 86.1754 487.373 86.9106 485.745 86.543C484.715 86.3091 483.552 86.5096 481.858 86.5096C483.02 84.605 483.917 83.1682 484.781 81.6979C487.705 76.786 490.628 71.9075 493.552 66.9622C493.984 66.2271 494.416 65.3917 494.582 64.5564C494.715 63.8547 494.482 63.0861 494.416 62.351C493.685 62.5849 492.721 62.5849 492.289 63.0861C489.366 66.4944 486.608 70.0363 483.685 73.478C480.396 77.3541 477.206 81.3638 473.652 84.9391C471.326 87.3115 468.569 87.4452 466.675 86.2089C464.383 84.7052 463.652 82.2326 464.682 78.3565C463.353 79.8601 462.422 81.063 461.326 82.1323C459.898 83.5357 458.469 85.0059 456.775 86.0418C453.353 88.1135 449.864 86.142 449.632 82.1323C449.565 80.6287 449.931 79.125 450.097 77.588C447.871 79.6596 445.712 81.7982 443.419 83.803C442.522 84.605 441.492 85.2733 440.396 85.7745C436.476 87.5788 433.486 87.2113 430.928 84.7386C428.27 82.1323 427.373 78.3231 429.1 74.6809C432.489 67.4968 438.203 63.0193 445.811 61.0813C448.801 60.3127 450.728 61.9835 450.595 65.0576C450.496 68.2654 449.167 71.0722 446.908 73.3443C446.409 73.8456 445.678 74.3802 445.047 74.4136C444.183 74.4804 442.987 74.4136 442.522 73.8456C442.057 73.3109 441.891 71.8407 442.29 71.3061C443.187 70.0363 444.516 69.0673 445.678 67.998C446.741 67.029 448.17 66.2605 448.801 65.0576C449.831 63.1195 448.536 61.6493 446.409 62.1839C445.346 62.4513 444.217 62.9859 443.419 63.721C439.067 67.5302 435.712 72.108 433.619 77.5545C433.32 78.2897 433.12 79.0916 432.987 79.8935C432.722 81.7647 432.389 83.803 434.183 85.1062C435.878 86.3425 437.738 85.8747 439.499 85.0059C444.316 82.6001 448.07 78.9245 451.06 74.6141C455.147 68.7332 458.868 62.5515 462.589 56.4367C465.645 51.3911 468.535 46.2119 471.459 41.0661C472.09 39.93 472.788 39.3954 474.183 39.6293C475.379 39.8297 476.642 39.5624 478.236 39.4956C477.14 41.4336 476.21 43.2046 475.213 44.9087C468.901 55.5345 462.555 66.1603 456.276 76.8194C455.147 78.724 454.25 80.7623 453.519 82.8674C453.253 83.6025 453.452 85.1396 453.918 85.3735C454.615 85.7076 456.044 85.6074 456.609 85.0728C459.565 82.1657 462.622 79.2921 465.08 75.9841C468.17 71.8407 470.728 67.3298 473.486 62.9525C474.15 61.8498 474.848 61.2818 476.21 61.5157C477.406 61.7161 478.668 61.5491 480.462 61.5491L480.562 61.4154Z" fill="#153A5E"/>
<path d="M300.829 41.6341C303.952 42.5363 304.749 44.4075 302.922 46.6462C301.593 48.2501 299.168 48.7179 297.905 47.6153C296.709 46.546 296.643 43.8729 297.806 42.4026C299.566 40.1639 302.789 39.1948 305.613 40.097C308.702 41.0995 310.53 43.5387 310.796 46.8467C311.194 51.7921 309.533 56.1693 306.842 60.1456C302.756 66.1602 297.673 71.2392 291.095 74.4804C284.218 77.8552 276.909 77.3206 271.992 72.0746C269.533 69.4682 268.238 66.3273 268.072 62.6183C267.54 51.9591 272.623 44.0399 280.098 37.3236C287.573 30.6074 296.344 26.3637 306.277 25.0272C315.247 23.8242 323.985 24.3255 331.36 30.5405C332.988 31.9105 334.317 33.6146 335.546 34.8844C339.599 32.4451 343.387 29.772 347.506 27.7671C352.29 25.3947 357.44 24.5928 362.722 26.1967C367.274 27.6001 370.031 30.9081 370.662 35.4524C371.094 38.4931 370.529 41.7009 370.33 44.8419C370.33 45.3431 369.865 45.8109 369.599 46.3121L369.068 46.145C369.234 45.2094 369.4 44.2738 369.533 43.3048C369.998 39.8631 370.23 36.4549 368.669 33.2137C366.875 29.4379 363.818 27.3662 359.732 26.8984C354.417 26.2969 349.466 27.6001 344.948 30.3735C342.456 31.9105 340.231 33.882 337.905 35.6863C336.975 36.388 336.875 37.2568 337.373 38.3595C344.317 53.3625 339.4 70.0363 326.476 79.7264C319.367 85.0727 311.46 87.9798 302.59 87.8127C297.938 87.7459 293.287 86.9439 288.603 86.8103C285.746 86.7434 282.922 87.5454 280.065 87.5788C274.716 87.679 269.367 87.512 264.052 87.4117C263.586 87.4117 263.055 87.3449 262.689 87.0776C261.992 86.5764 261.361 85.9415 260.696 85.3735C261.294 84.7052 261.759 83.7696 262.523 83.4688C267.108 81.5976 271.826 81.8984 276.543 82.7337C279.168 83.2015 281.892 83.4354 284.417 84.2708C289.633 86.0083 293.919 83.803 298.304 81.5308C304.151 78.4901 307.606 73.1104 311.261 67.998C314.948 62.8188 318.104 57.2052 321.859 52.0594C325.347 47.2143 329.234 42.6699 333.055 38.0922C334.018 36.9561 334.184 36.1876 333.287 34.9846C329.201 29.4379 323.619 26.5642 316.875 26.0296C301.925 24.7933 290.53 31.4093 281.161 42.4694C277.473 46.8133 274.616 51.6584 272.789 57.0715C272.125 59.043 271.626 61.1147 271.46 63.1863C270.796 71.3394 276.743 75.984 284.384 75.0484C288.337 74.5806 291.826 72.8431 294.948 70.4373C300.065 66.4609 304.849 62.0503 307.473 55.9688C308.669 53.2289 309.3 49.9877 309.267 47.0138C309.201 42.4026 304.749 39.8297 300.762 41.6007L300.829 41.6341ZM292.756 85.34L292.855 85.8747C308.071 88.3807 319.732 86.0083 329.566 71.6736C336.377 61.7161 340.098 51.0903 335.314 38.9275C333.852 40.3978 332.423 41.8346 331.493 43.5721C327.706 50.3886 324.151 57.3054 320.364 64.1219C316.643 70.7714 312.025 76.6523 305.148 80.3613C302.922 81.5642 300.796 82.9342 298.47 83.9366C296.676 84.7052 294.683 84.9391 292.756 85.4069V85.34ZM262.623 85.2398C264.915 86.8437 279.799 87.1444 282.789 85.9081C276.045 85.4737 269.367 83.8364 262.623 85.2398Z" fill="#153A5E"/>
<path d="M171.66 91.1208C172.391 90.0181 173.155 88.9489 173.886 87.8462C182.557 75.249 189.002 61.6494 191.461 46.4124C191.959 43.2715 191.959 39.93 191.461 36.7557C190.198 28.7028 184.883 25.1609 176.876 26.6311C170.896 27.7338 165.846 30.7745 161.228 34.5169C154.484 39.9969 149.434 46.78 146.478 55.0333C144.75 59.8116 143.986 64.7235 145.481 69.6688C146.677 73.7119 150.132 76.1512 154.318 76.4853C158.305 76.7861 162.026 75.8505 165.149 73.5115C173.288 67.4635 179.401 59.845 181.427 49.6202C181.793 47.7156 181.394 45.4434 180.73 43.5722C179.534 40.2642 174.617 39.5625 172.192 42.2356C172.457 42.3359 172.723 42.4695 172.923 42.4695C174.584 42.4361 175.68 43.0042 175.713 44.842C175.713 46.5795 174.019 48.1834 172.158 48.2836C170.232 48.3505 168.936 47.5151 169.069 45.7441C169.168 44.3073 169.733 42.67 170.63 41.6008C172.457 39.4288 175.049 38.8942 177.773 39.5625C180.431 40.2308 181.992 42.102 182.623 44.7083C183.786 49.3863 182.258 53.7302 180.231 57.7399C176.876 64.4228 172.225 70.17 166.012 74.4471C161.693 77.4209 156.909 78.6907 151.727 77.3207C146.61 75.9507 143.687 72.342 142.424 67.3966C140.697 60.7472 142.391 54.4653 145.68 48.7848C151.029 39.5625 158.404 32.345 168.172 27.8675C173.952 25.1943 180.099 23.9246 186.311 26.2636C192.989 28.8031 196.311 34.1159 197.108 41.0661C198.271 51.057 195.148 60.0121 189.932 68.232C186.045 74.3468 181.494 80.0272 177.241 85.9082C177.009 86.2423 176.776 86.5431 176.776 87.1779C177.74 86.4094 178.736 85.6409 179.7 84.8389C180.663 84.037 181.726 83.2684 182.59 82.3328C187.972 76.5187 193.354 70.7047 198.637 64.8237C208.637 53.6968 217.939 41.8681 230.298 33.1469C237.341 28.1682 244.749 23.8243 253.055 21.3851C256.543 20.3492 260.264 20.1153 263.885 19.5473C264.351 19.4805 264.915 19.4136 265.281 19.6141C266.012 20.0485 266.643 20.65 267.307 21.1846C266.576 21.5856 265.879 22.2873 265.115 22.3541C262.324 22.5546 259.5 22.2204 256.743 22.6214C248.769 23.7575 241.859 27.6002 235.015 31.6767C225.281 37.4574 217.806 45.7107 210.298 53.9641C201.494 63.6542 192.723 73.3444 183.653 82.8006C180.73 85.8748 177.009 88.2138 173.653 90.8535C173.222 91.1876 172.624 91.3547 172.125 91.5886L171.693 91.1208H171.66Z" fill="#153A5E"/>
<path d="M376.908 68.3994C379.234 66.3945 381.526 64.3228 383.951 62.4182C386.244 60.5804 388.536 60.4133 390.43 61.6831C392.257 62.9194 393.32 65.7262 392.489 68.1989C391.758 70.4042 390.662 72.5427 389.533 74.581C388.137 77.1205 386.443 79.4595 385.147 82.0324C384.682 82.9346 385.014 84.2378 384.948 85.3738C386.111 85.1399 387.639 85.307 388.403 84.6387C390.729 82.6339 393.054 80.4953 394.815 78.0227C398.204 73.2779 401.227 68.2657 404.383 63.3538C404.549 63.0865 404.582 62.7523 404.715 62.2845L401.459 61.7499V61.0816C402.257 60.9814 403.121 60.7475 403.951 60.7809C405.413 60.8477 406.376 60.2797 407.041 59.0099C407.971 57.3058 409.001 55.6351 409.931 53.9309C410.596 52.6612 411.393 51.9595 412.954 52.2268C414.051 52.4273 415.214 52.2602 416.642 52.2602L411.958 60.4802L416.841 60.9814V61.7499C415.845 61.8501 414.815 62.084 413.818 61.9838C411.625 61.7499 410.429 62.6855 409.4 64.5901C406.576 69.7693 403.519 74.8483 400.562 79.9941C400.064 80.8629 399.599 81.7985 399.433 82.7675C399.3 83.5361 399.366 84.739 399.832 85.1065C400.43 85.5743 401.825 85.7414 402.356 85.3404C404.516 83.7031 406.642 81.9322 408.469 79.9273C410.396 77.7888 411.958 75.3161 413.685 73.0105C414.184 72.3423 414.715 71.7074 415.247 71.0391L415.712 71.3064C415.612 71.674 415.612 72.1418 415.38 72.4091C412.356 76.1849 409.333 79.9273 406.243 83.6363C405.645 84.338 404.848 84.8726 404.084 85.4407C402.19 86.8775 400.131 87.4789 397.938 86.1424C395.812 84.8392 395.247 82.7341 395.446 80.3617C395.446 79.9607 395.546 79.5932 395.513 79.7602C393.984 81.1302 392.124 82.7341 390.33 84.3714C387.406 87.0111 385.014 87.5124 382.788 85.9753C380.529 84.4382 379.666 81.1302 381.293 77.9559C383.154 74.2469 385.546 70.8052 387.672 67.2299C388.17 66.4279 388.702 65.626 388.968 64.7238C389.167 64.0889 389.3 63.0531 388.968 62.6855C388.503 62.2177 387.373 61.8836 386.842 62.1509C385.28 62.8526 383.519 63.5877 382.489 64.8574C378.835 69.4018 375.38 74.0798 371.991 78.8246C370.563 80.8295 369.533 83.1685 368.137 85.2068C367.672 85.8751 366.609 86.276 365.745 86.4431C364.549 86.6436 363.287 86.5099 361.593 86.5099C362.124 85.4741 362.39 84.8392 362.755 84.2378C366.078 78.7244 369.466 73.211 372.755 67.6642C373.387 66.5616 373.885 65.3587 374.25 64.1557C374.416 63.6211 374.117 62.9194 374.018 62.3179C373.387 62.4516 372.589 62.3514 372.224 62.7523C370.363 64.6904 368.602 66.6952 366.842 68.7001C362.656 73.4783 358.636 78.4237 354.217 83.0014C351.726 85.5743 348.47 87.2785 344.616 86.7772C340.795 86.276 338.304 83.4024 338.005 79.5597C337.706 75.8842 339.001 72.7098 341.46 70.1703C345.978 65.4589 351.427 62.2511 357.838 60.948C360.098 60.4802 362.191 61.4158 363.021 63.1199C363.785 64.6569 363.154 66.8289 361.46 68.3659C358.237 71.273 354.118 72.1084 350.131 73.3113C349.932 73.3781 349.732 73.4115 349.533 73.4115C344.882 73.4115 343.121 76.4522 342.058 80.3951C341.161 83.8034 343.121 86.1424 346.642 85.6746C350.098 85.2068 352.855 83.3356 355.081 80.8963C359.599 75.9176 363.785 70.7049 368.171 65.5925C369.2 64.3896 370.264 63.0865 371.559 62.1843C372.556 61.516 374.084 60.9145 375.147 61.1819C376.842 61.6162 377.772 63.2535 377.805 65.0913C377.805 66.3945 377.573 67.7311 377.406 69.0342L376.875 68.3994H376.908ZM346.609 72.5093C351.327 71.4735 355.679 69.6357 359.001 65.9935C359.832 65.0913 361.227 63.7213 359.965 62.5853C359.333 61.9838 357.373 62.2845 356.343 62.8192C352.191 64.9911 349.267 68.5998 346.609 72.5427V72.5093Z" fill="#153A5E"/>
<path d="M234.683 86.4765C235.912 84.4383 236.876 82.8344 237.806 81.2305C240.796 76.0513 243.852 70.9054 246.743 65.6594C247.241 64.7238 247.108 63.4206 247.274 62.2845C246.211 62.7858 244.783 62.9863 244.118 63.8216C240.696 68.0318 237.54 72.4759 234.118 76.7195C231.793 79.5932 229.301 82.2997 226.71 84.9061C224.982 86.6102 222.723 87.7129 220.331 86.2426C217.972 84.7724 217.274 82.4334 217.806 79.7268C217.839 79.5598 217.773 79.3593 217.673 78.7244C216.61 79.9941 215.779 81.0968 214.849 82.0658C213.587 83.369 212.391 84.7724 210.929 85.7748C207.773 87.9468 204.218 86.7438 202.69 83.2019C201.261 79.8939 201.66 76.5859 203.421 73.6788C207.574 66.8289 213.919 62.886 221.56 61.0482C224.251 60.3799 224.982 60.8811 226.211 63.287C227.939 61.2821 229.633 60.8477 233.221 61.6497C232.823 62.4516 232.49 63.2201 232.092 63.9219C228.803 69.7025 225.48 75.4498 222.258 81.2639C221.56 82.5002 220.696 84.2378 222.158 85.3404C223.62 86.4431 224.982 85.1065 225.979 84.0373C228.936 80.8629 231.859 77.6217 234.65 74.2803C237.341 71.0391 239.799 67.5974 242.457 64.2894C243.288 63.2536 244.318 62.318 245.414 61.6163C247.939 59.9455 250.796 61.2821 250.862 64.3562C250.896 66.7287 250.298 69.1011 249.932 71.7408C250.563 70.9723 251.327 70.304 251.793 69.4686C253.321 66.595 255.015 63.855 257.739 61.9504C258.902 61.1151 260.464 59.9121 261.66 61.4492C262.822 62.9194 261.394 64.256 260.297 65.1582C258.271 66.7955 256.111 68.2991 253.952 69.7694C252.058 71.0391 251.095 74.1132 252.092 76.1849C252.789 77.6551 254.251 78.1229 255.48 77.4547C257.274 76.5191 258.836 75.1491 260.397 73.8125C261.327 73.0106 262.025 71.9747 262.822 71.0391L263.321 71.3733C263.121 71.8076 263.055 72.3423 262.723 72.6764C261.095 74.3471 259.5 76.1181 257.706 77.5883C256.111 78.9249 254.018 79.2256 252.224 78.1564C250.53 77.1539 250.53 75.2493 250.763 73.4449C250.763 73.1776 250.763 72.9437 250.364 72.4091C249.201 73.8125 247.939 75.1491 246.909 76.6527C245.048 79.3927 243.321 82.1995 241.626 85.0063C240.929 86.1758 240.131 86.7438 238.703 86.5099C237.607 86.3429 236.477 86.4765 234.749 86.4765H234.683ZM205.414 82.5336C206.045 83.7031 206.311 85.0731 207.009 85.3404C207.873 85.6746 209.102 85.1734 210.132 84.9061C210.564 84.8058 210.929 84.4383 211.261 84.1041C216.311 79.1588 220.53 73.5452 223.819 67.2633C224.617 65.7262 225.646 63.7214 224.085 62.4516C222.49 61.1485 220.63 62.4182 219.168 63.4875C214.583 66.7955 211.062 71.0725 208.238 75.9176C207.042 77.9559 206.344 80.2615 205.381 82.5336H205.414Z" fill="#153A5E"/>
<path d="M95.3151 33.7484C93.521 33.8152 92.4911 32.4786 92.1257 30.4069C91.7603 28.3018 91.3948 26.1633 90.6307 24.1918C89.4679 21.2514 86.8101 20.1821 83.953 19.7143C82.2919 19.447 81.4281 18.5114 81.3949 16.9075C81.3616 15.2368 82.4912 14.368 83.9862 14.0339C89.3018 12.7976 91.3616 10.5254 91.9596 5.07885C92.026 4.34373 92.0925 3.60862 92.1921 2.8735C92.4247 1.20279 93.3217 0.066698 95.016 -0.000130667C96.7436 -0.0669593 97.6406 1.06913 97.9396 2.73985C98.2054 4.2769 98.4047 5.78055 98.7702 7.31761C99.6672 11.2939 101.993 13.399 106.013 13.9671C107.574 14.1675 108.704 14.8693 108.87 16.5734C109.003 18.077 108.305 19.1797 106.81 19.6475C100.033 21.8528 98.5376 23.6572 97.9728 30.7411C97.8067 32.6123 97.0426 33.6147 95.3483 33.8152L95.3151 33.7484ZM95.2486 19.4804C97.1534 17.6092 97.1534 15.816 95.2486 14.1007C92.325 16.707 92.325 16.7739 95.2486 19.4804Z" fill="#153A5E"/>
<path d="M20.7308 16.5736C20.6643 18.2777 19.6012 19.1465 18.0065 19.5474C15.0165 20.2825 13.6876 21.8864 13.4551 25.0608C13.3886 25.7959 13.4551 26.7649 12.9899 27.1659C12.1594 28.0013 11.063 29.0037 9.99993 29.0705C8.60459 29.1708 7.64114 27.9678 7.44181 26.4308C7.27569 25.3615 7.24247 24.2589 6.94347 23.2564C6.37869 21.2516 5.21591 19.8147 2.92356 19.6143C1.16277 19.4472 0.0664352 18.3111 -9.54582e-06 16.607C-0.0664543 15.0031 1.09633 14.1009 2.65778 13.8002C5.6478 13.1987 7.00992 11.1938 7.34214 8.2868C7.70759 5.27951 8.63781 4.04318 10.3654 4.00977C12.0929 4.00977 13.2557 5.61365 13.4883 8.45387C13.7541 11.4277 14.9168 12.8646 17.8736 13.6331C19.4351 14.0341 20.6311 14.7358 20.7308 16.607V16.5736Z" fill="#153A5E"/>
<path d="M531.758 57.1718C530.329 57.1718 529.465 56.5369 529.399 55.0667C529.332 53.0284 531.724 50.656 533.817 50.6226C535.246 50.6226 536.11 51.2574 536.11 52.7611C536.11 54.9664 533.95 57.1718 531.758 57.1718Z" fill="#153A5E"/>
<path d="M484.349 52.8278C484.349 53.0283 484.349 53.2288 484.316 53.4293C484.017 55.501 481.824 57.3054 479.765 57.1717C478.17 57.0715 477.804 56.0356 477.871 54.6656C477.971 52.5939 480.064 50.5891 482.123 50.6225C483.585 50.6225 484.349 51.3576 484.383 52.8278H484.349Z" fill="#153A5E"/>
<path d="M39.5679 44.7754C40.1659 45.4103 40.631 45.8781 41.0297 46.3793C42.3918 48.0166 41.8934 50.6229 39.8669 51.0907C39.136 51.2578 38.0064 50.1217 37.3087 49.3532C36.9433 48.9856 36.8436 47.9498 37.0762 47.5154C37.6742 46.5798 38.5712 45.8112 39.5679 44.7754Z" fill="#153A5E"/>
</g>
<defs>
<clipPath id="clip0_2_282">
<rect width="559" height="110" fill="white"/>
</clipPath>
</defs>
</svg>
