<svg width="255" height="126" viewBox="0 0 255 126" fill="none" xmlns="http://www.w3.org/2000/svg">
<g clip-path="url(#clip0_2_243)">
<path d="M126.888 13.5102C129.003 13.1642 131.117 12.5122 133.218 12.5655C135.877 12.6187 138.616 12.9247 141.156 13.6965C146.301 15.24 149 19.2185 149.173 24.6075C149.32 29.1183 148.136 33.2299 145.809 37.0753C143.615 40.7079 142.844 44.7529 142.831 48.9311C142.818 52.7499 142.698 56.5421 141.541 60.2013C140.969 62.0109 140.092 63.754 139.108 65.3774C137.964 67.2935 136.09 67.9455 134.175 67.4265C132.526 66.9874 131.343 65.3641 131.236 63.1952C131.157 61.5186 131.29 59.8421 131.21 58.1788C131.037 54.0672 130.266 50.0754 128.418 46.3497C127.819 45.1521 127.128 43.9945 125.599 43.9413C123.99 43.888 122.966 44.7929 122.221 46.1634C120.386 49.5431 119.761 53.2289 119.522 57.0079C119.389 59.2832 119.442 61.5718 119.283 63.8605C119.176 65.5371 118.339 66.881 116.677 67.3733C114.855 67.9056 113.206 67.4931 111.943 65.9496C110.467 64.1399 109.377 62.1041 108.991 59.8288C108.406 56.4224 107.821 52.9628 107.781 49.5298C107.728 44.5667 106.691 40.0426 104.085 35.7846C101.559 31.673 100.894 27.0957 101.625 22.3322C102.356 17.5553 106.252 14.0558 111.252 12.9513C117.421 11.5941 122.341 13.9493 127.008 17.4754C127.926 18.1673 128.803 18.8859 129.654 19.6576C130.332 20.2564 131.037 20.6955 131.768 19.8971C132.579 19.0322 131.994 18.327 131.303 17.7282C130.186 16.7702 129.042 15.8521 127.926 14.9073C127.567 14.6013 127.208 14.282 126.849 13.9759L126.875 13.5634L126.888 13.5102ZM118.259 39.8031C119.19 39.7365 119.642 39.1777 119.708 38.2196C119.948 34.7467 121.038 31.9924 125.054 31.4468C125.506 31.3803 126.131 30.5553 126.144 30.063C126.157 29.5973 125.506 29.0783 125.08 28.6526C124.907 28.4796 124.548 28.5062 124.256 28.453C122.434 28.1203 121.065 27.2022 120.533 25.3526C120.214 24.2216 119.921 23.0773 119.735 21.9064C119.589 21.0015 119.176 20.4294 118.272 20.4294C117.368 20.4294 116.903 20.9882 116.783 21.8931C116.65 22.8245 116.517 23.7559 116.265 24.6607C115.64 26.8961 114.337 28.4263 111.89 28.6659C111.039 28.7457 110.281 29.0118 110.268 29.9699C110.268 30.9811 110.973 31.4601 111.93 31.5799C113.738 31.7928 115.134 32.7109 115.826 34.3476C116.331 35.5584 116.544 36.9156 116.783 38.2329C116.943 39.0978 117.262 39.6966 118.246 39.8031H118.259Z" fill="white"/>
<path d="M206.614 107.518C204.992 110.166 203.543 112.521 202.12 114.889C201.229 116.353 200.338 117.817 199.54 119.334C199.075 120.199 198.636 121.303 199.554 122.022C200.445 122.713 201.429 122.061 202.053 121.383C204.088 119.161 206.029 116.859 207.997 114.583C209.938 112.335 211.76 109.98 213.847 107.864C215.111 106.586 216.826 107.238 217.305 109.008C217.491 109.687 217.398 110.459 217.371 111.177C217.371 111.483 217.211 111.789 217.052 112.388C218.129 111.177 218.993 110.179 219.897 109.208C220.31 108.769 220.775 108.356 221.28 107.997C222.716 106.986 224.126 106.906 225.256 107.731C226.346 108.516 226.998 110.432 226.333 111.842C225.349 113.945 224.112 115.914 223.009 117.963C222.49 118.935 221.945 119.893 221.599 120.93C221.28 121.902 221.945 122.54 222.862 122.115C223.767 121.716 224.631 121.09 225.336 120.385C228.407 117.351 230.774 113.785 232.888 110.033C233.034 109.78 233.167 109.527 233.313 109.288C234.484 107.332 235.428 106.972 237.981 107.598C237.715 108.117 237.502 108.622 237.223 109.088C235.268 112.335 233.287 115.581 231.332 118.828C231.066 119.28 230.787 119.786 230.734 120.292C230.667 120.851 230.667 121.662 230.987 121.942C231.319 122.221 232.143 122.115 232.662 121.942C233.22 121.755 233.766 121.356 234.151 120.904C236.053 118.628 237.981 116.353 239.762 113.985C242.209 110.711 245.134 108.17 249.216 107.265C251.051 106.853 252.035 107.678 252.075 109.58C252.115 111.669 251.277 113.399 249.788 114.81C248.91 115.635 247.7 115.701 247.155 115.049C246.597 114.384 246.823 113.24 247.767 112.481C248.458 111.922 249.256 111.496 249.987 110.964C250.346 110.711 250.812 110.432 250.931 110.073C251.117 109.54 251.25 108.755 250.985 108.383C250.732 108.037 249.801 107.864 249.389 108.063C248.405 108.516 247.421 109.101 246.676 109.873C244.629 112.002 242.914 114.397 241.837 117.178C241.491 118.07 241.345 119.081 241.345 120.039C241.345 121.729 242.315 122.58 243.964 122.234C244.975 122.035 245.985 121.556 246.849 120.984C249.389 119.28 251.37 117.005 253.218 114.597C253.524 114.198 253.883 113.838 254.229 113.452L254.508 113.625C254.375 113.918 254.309 114.277 254.096 114.504C251.862 116.819 249.628 119.134 247.368 121.409C247.035 121.742 246.57 121.982 246.131 122.195C242.488 124.097 239.004 122.195 238.592 118.096C238.566 117.857 238.552 117.631 238.526 117.258C237.249 118.628 236.066 119.893 234.882 121.157C234.776 121.276 234.63 121.356 234.51 121.463C233.181 122.594 231.731 123.525 229.963 122.58C228.261 121.676 228.075 120.066 228.394 118.668C227.729 119.214 226.891 119.919 226.04 120.624C225.282 121.236 224.551 121.875 223.767 122.461C221.839 123.911 219.432 122.155 219.259 120.159C219.126 118.748 219.445 117.497 220.216 116.327C221.32 114.65 222.37 112.96 223.447 111.27C223.607 111.031 223.793 110.804 223.9 110.538C224.205 109.793 225.096 109.008 224.259 108.223C223.408 107.425 222.464 108.037 221.692 108.569C219.312 110.192 217.69 112.521 216.121 114.85C214.619 117.085 213.236 119.4 211.866 121.716C211.401 122.514 210.922 122.953 209.925 122.727C209.287 122.58 208.595 122.7 207.558 122.7C208.263 121.543 208.808 120.664 209.34 119.786C211.122 116.806 212.917 113.838 214.685 110.858C214.951 110.405 215.204 109.913 215.31 109.394C215.39 108.968 215.244 108.503 215.204 108.05C214.765 108.197 214.167 108.197 213.914 108.489C212.132 110.552 210.444 112.707 208.675 114.783C206.681 117.138 204.726 119.56 202.559 121.742C201.136 123.179 199.447 123.272 198.304 122.514C196.908 121.596 196.469 120.092 197.094 117.75C196.296 118.655 195.711 119.4 195.046 120.039C194.169 120.877 193.304 121.795 192.281 122.407C190.193 123.658 188.066 122.474 187.933 120.026C187.879 119.121 188.105 118.189 188.212 117.271C186.869 118.535 185.539 119.813 184.143 121.037C183.598 121.516 182.96 121.928 182.308 122.234C179.915 123.339 178.093 123.113 176.537 121.596C174.915 120.012 174.37 117.697 175.407 115.502C177.468 111.137 180.965 108.423 185.606 107.238C187.427 106.773 188.597 107.784 188.531 109.66C188.464 111.616 187.653 113.306 186.284 114.677C185.978 114.983 185.539 115.289 185.14 115.329C184.622 115.382 183.89 115.329 183.598 114.996C183.305 114.677 183.212 113.785 183.452 113.452C183.997 112.694 184.808 112.108 185.513 111.457C186.151 110.871 187.028 110.405 187.414 109.673C188.039 108.503 187.254 107.598 185.965 107.93C185.313 108.09 184.635 108.423 184.13 108.862C181.484 111.177 179.436 113.958 178.146 117.245C177.973 117.697 177.827 118.176 177.761 118.655C177.588 119.799 177.388 121.024 178.492 121.809C179.529 122.567 180.659 122.274 181.736 121.742C184.662 120.292 186.962 118.056 188.797 115.448C191.297 111.869 193.557 108.13 195.831 104.418C197.705 101.357 199.461 98.2169 201.242 95.09C201.628 94.4114 202.04 94.0787 202.904 94.2118C203.636 94.3315 204.407 94.1719 205.378 94.1187C204.713 95.2896 204.141 96.3541 203.529 97.392C199.687 103.845 195.804 110.286 191.988 116.752C191.31 117.91 190.765 119.147 190.299 120.412C190.14 120.864 190.259 121.795 190.539 121.928C190.964 122.141 191.842 122.061 192.174 121.742C193.969 119.972 195.831 118.229 197.333 116.233C199.208 113.732 200.79 110.991 202.452 108.33C202.865 107.664 203.277 107.305 204.114 107.451C204.846 107.571 205.604 107.478 206.707 107.478L206.614 107.518Z" fill="white"/>
<path d="M97.0112 95.516C98.9259 96.0749 99.4045 97.2059 98.3009 98.5498C97.4898 99.5344 96.0139 99.8139 95.256 99.1486C94.5247 98.4966 94.4848 96.8865 95.1895 95.995C96.2666 94.6245 98.2344 94.0523 99.9497 94.6112C101.824 95.21 102.941 96.7002 103.114 98.7095C103.354 101.717 102.356 104.365 100.708 106.773C98.2078 110.432 95.1231 113.493 91.0942 115.462C86.8925 117.511 82.4515 117.178 79.4465 114.011C77.944 112.428 77.1595 110.512 77.0531 108.277C76.7207 101.81 79.8188 97.0063 84.3795 92.9346C88.9402 88.8629 94.2721 86.2949 100.349 85.4832C105.813 84.7514 111.145 85.0574 115.653 88.823C116.637 89.648 117.461 90.6859 118.206 91.4709C120.679 89.9807 122.992 88.3706 125.492 87.1465C128.404 85.7094 131.555 85.2171 134.76 86.1884C137.526 87.0267 139.214 89.0359 139.6 91.8036C139.866 93.6531 139.507 95.5958 139.387 97.4986C139.374 97.8046 139.095 98.0841 138.948 98.3768L138.616 98.2704C138.709 97.6982 138.815 97.126 138.895 96.5539C139.188 94.4781 139.321 92.4024 138.377 90.4331C137.286 88.1311 135.425 86.8803 132.938 86.6009C129.694 86.2416 126.676 87.0134 123.937 88.7166C122.421 89.6613 121.065 90.8589 119.642 91.95C119.083 92.3891 119.017 92.8947 119.323 93.5733C123.564 102.675 120.559 112.787 112.688 118.669C108.353 121.902 103.526 123.672 98.1281 123.579C95.2826 123.525 92.4505 123.046 89.605 122.98C87.8765 122.94 86.1346 123.419 84.3928 123.445C81.1352 123.499 77.8775 123.406 74.6199 123.352C74.3406 123.352 74.0082 123.299 73.7955 123.153C73.3567 122.847 72.9844 122.461 72.5855 122.115C72.9578 121.716 73.237 121.13 73.6891 120.957C76.4814 119.826 79.3667 120.013 82.2521 120.505C83.8609 120.784 85.5097 120.931 87.0521 121.436C90.2432 122.487 92.8494 121.144 95.5087 119.773C99.0721 117.937 101.186 114.677 103.407 111.563C105.654 108.41 107.582 105.03 109.869 101.89C111.996 98.9623 114.363 96.1946 116.703 93.4269C117.288 92.735 117.395 92.2826 116.85 91.5375C114.35 88.1577 110.959 86.4412 106.851 86.0953C97.7425 85.3368 90.7884 89.3686 85.0709 96.0615C82.8238 98.6961 81.082 101.65 79.9784 104.923C79.5795 106.108 79.2736 107.372 79.1673 108.623C78.7684 113.572 82.385 116.38 87.0521 115.821C89.4588 115.528 91.5862 114.49 93.4876 113.014C96.6123 110.592 99.5375 107.931 101.12 104.231C101.838 102.568 102.237 100.612 102.21 98.8026C102.17 95.995 99.4444 94.4382 97.0245 95.516H97.0112ZM92.0915 122.035L92.1579 122.368C101.439 123.898 108.539 122.461 114.536 113.745C118.684 107.718 120.945 101.251 118.033 93.8793C117.129 94.7708 116.278 95.6491 115.693 96.6869C113.392 100.812 111.225 105.03 108.912 109.141C106.638 113.173 103.819 116.739 99.6439 118.988C98.2876 119.72 96.9846 120.558 95.5751 121.144C94.4848 121.596 93.2616 121.742 92.0915 122.022V122.035ZM73.729 121.982C75.1251 122.953 84.2066 123.126 86.0283 122.381C81.9196 122.115 77.8509 121.13 73.729 121.982Z" fill="white"/>
<path d="M18.2827 125.535C18.7347 124.869 19.1868 124.204 19.6389 123.552C24.9309 115.901 28.8534 107.664 30.3559 98.4167C30.6617 96.5139 30.6484 94.4781 30.3559 92.562C29.5847 87.6654 26.3536 85.5231 21.4605 86.4279C17.8173 87.0932 14.7325 88.9427 11.9269 91.2048C7.81833 94.518 4.73354 98.6429 2.92522 103.646C1.8748 106.547 1.40942 109.514 2.31358 112.534C3.04489 114.983 5.14573 116.473 7.69866 116.659C10.1186 116.832 12.3923 116.273 14.307 114.863C19.2799 111.204 22.9896 106.587 24.2262 100.359C24.4522 99.2018 24.1996 97.8179 23.7874 96.6869C23.0694 94.691 20.0511 94.2519 18.5885 95.8752C18.7613 95.9285 18.9076 96.0216 19.0406 96.0216C20.0511 95.995 20.7292 96.3542 20.7292 97.472C20.7292 98.5364 19.6921 99.5078 18.5619 99.5477C17.3785 99.6009 16.594 99.082 16.6738 98.0042C16.7403 97.1393 17.0727 96.1414 17.6311 95.4894C18.7347 94.1587 20.317 93.8394 21.9791 94.2519C23.6013 94.6511 24.5586 95.7821 24.9442 97.3655C25.6489 100.213 24.7315 102.834 23.4949 105.269C21.4339 109.328 18.6151 112.814 14.8256 115.395C12.1796 117.205 9.28094 117.977 6.10308 117.138C2.9917 116.313 1.20997 114.131 0.425479 111.124C-0.624943 107.079 0.398886 103.287 2.40666 99.8271C5.6643 94.2386 10.1718 89.8476 16.1153 87.1331C19.6522 85.5231 23.3885 84.738 27.1647 86.1618C31.2334 87.692 33.2545 90.9254 33.7598 95.1434C34.4778 101.198 32.5631 106.64 29.3852 111.63C27.0185 115.342 24.2528 118.788 21.66 122.354C21.5137 122.554 21.3674 122.74 21.3807 123.139C21.9791 122.674 22.5774 122.208 23.1625 121.716C23.7608 121.223 24.399 120.758 24.9176 120.199C28.1885 116.673 31.4728 113.147 34.7038 109.567C40.7936 102.808 46.4712 95.6357 54.0103 90.3532C58.3184 87.346 62.8259 84.6981 67.8919 83.2078C70.0193 82.5824 72.293 82.4361 74.5002 82.0901C74.7794 82.0502 75.1252 82.0103 75.3379 82.1433C75.79 82.3962 76.1623 82.7687 76.5745 83.0881C76.1357 83.3409 75.6969 83.7667 75.2315 83.7933C73.5296 83.8997 71.801 83.7135 70.139 83.953C65.2725 84.6449 61.0575 86.9734 56.8957 89.4484C50.9654 92.9612 46.4047 97.951 41.8174 102.967C36.4457 108.849 31.0872 114.73 25.5824 120.465C23.7874 122.328 21.5403 123.752 19.4793 125.362C19.2134 125.574 18.8544 125.668 18.5353 125.814L18.2694 125.535H18.2827Z" fill="white"/>
<path d="M143.416 111.749C144.839 110.538 146.235 109.274 147.697 108.116C149.094 106.999 150.503 106.892 151.646 107.677C152.75 108.423 153.402 110.126 152.91 111.629C152.458 112.973 151.793 114.251 151.101 115.501C150.264 117.032 149.226 118.469 148.429 120.025C148.149 120.571 148.336 121.369 148.309 122.048C149.027 121.915 149.944 122.008 150.423 121.596C151.833 120.371 153.255 119.081 154.332 117.577C156.407 114.703 158.241 111.656 160.169 108.675C160.276 108.516 160.289 108.303 160.382 108.023L158.388 107.704V107.305C158.88 107.238 159.398 107.092 159.904 107.119C160.781 107.158 161.379 106.812 161.792 106.041C162.35 105.003 162.988 103.992 163.547 102.954C163.946 102.195 164.438 101.756 165.382 101.929C166.047 102.049 166.751 101.956 167.629 101.956C166.685 103.606 165.794 105.176 164.77 106.959L167.762 107.252V107.717C167.163 107.771 166.539 107.917 165.927 107.85C164.597 107.704 163.866 108.276 163.241 109.434C161.512 112.587 159.651 115.661 157.869 118.775C157.563 119.307 157.271 119.879 157.178 120.465C157.098 120.93 157.138 121.662 157.43 121.888C157.789 122.168 158.64 122.274 158.96 122.035C160.276 121.037 161.579 119.972 162.696 118.748C163.879 117.457 164.823 115.954 165.874 114.557C166.179 114.157 166.499 113.758 166.818 113.372L167.097 113.532C167.03 113.758 167.03 114.038 166.897 114.211C165.063 116.499 163.214 118.775 161.326 121.037C160.967 121.462 160.462 121.782 160.01 122.128C158.84 123.006 157.59 123.365 156.26 122.554C154.957 121.755 154.625 120.491 154.731 119.054C154.745 118.815 154.784 118.575 154.771 118.682C153.827 119.506 152.71 120.491 151.607 121.476C149.825 123.073 148.376 123.379 146.993 122.447C145.623 121.516 145.091 119.52 146.075 117.577C147.219 115.328 148.668 113.239 149.971 111.07C150.264 110.578 150.596 110.086 150.769 109.554C150.902 109.168 150.968 108.529 150.769 108.316C150.49 108.037 149.798 107.837 149.466 107.983C148.522 108.423 147.431 108.862 146.807 109.633C144.573 112.388 142.472 115.235 140.398 118.109C139.52 119.334 138.908 120.744 138.044 121.981C137.765 122.381 137.113 122.633 136.595 122.727C135.864 122.846 135.092 122.753 134.068 122.753C134.388 122.128 134.547 121.729 134.773 121.369C136.808 118.016 138.869 114.676 140.876 111.323C141.275 110.658 141.554 109.926 141.78 109.194C141.874 108.862 141.687 108.449 141.634 108.077C141.262 108.156 140.757 108.103 140.531 108.329C139.4 109.5 138.323 110.724 137.246 111.949C134.693 114.849 132.234 117.857 129.548 120.624C128.032 122.181 126.037 123.219 123.697 122.913C121.37 122.607 119.855 120.877 119.655 118.535C119.469 116.3 120.267 114.384 121.756 112.84C124.508 109.993 127.832 108.05 131.755 107.252C133.138 106.972 134.414 107.544 134.919 108.556C135.385 109.487 134.999 110.804 133.962 111.736C131.994 113.492 129.481 113.998 127.061 114.73C126.942 114.77 126.822 114.796 126.702 114.796C123.857 114.796 122.793 116.646 122.155 119.041C121.596 121.117 122.806 122.527 124.96 122.234C127.061 121.955 128.75 120.824 130.093 119.347C132.832 116.326 135.411 113.159 138.071 110.072C138.709 109.327 139.347 108.542 140.145 108.01C140.757 107.598 141.687 107.238 142.326 107.411C143.349 107.677 143.921 108.662 143.948 109.78C143.961 110.578 143.802 111.376 143.708 112.175L143.389 111.789L143.416 111.749ZM124.934 114.237C127.806 113.599 130.465 112.494 132.499 110.272C133.005 109.727 133.856 108.888 133.085 108.196C132.699 107.837 131.502 108.01 130.877 108.329C128.338 109.647 126.569 111.842 124.934 114.224V114.237Z" fill="white"/>
<path d="M56.6829 122.727C57.4275 121.489 58.0126 120.531 58.5843 119.546C60.4192 116.406 62.2674 113.279 64.0359 110.112C64.355 109.554 64.2619 108.755 64.355 108.077C63.7035 108.383 62.8392 108.502 62.4403 109.008C60.3528 111.563 58.4381 114.264 56.3505 116.819C54.9411 118.548 53.4253 120.212 51.8297 121.782C50.7793 122.82 49.4097 123.485 47.9471 122.58C46.5111 121.689 46.0989 120.278 46.4047 118.628C46.4313 118.522 46.3781 118.402 46.325 118.016C45.6734 118.788 45.1815 119.453 44.6097 120.052C43.8518 120.837 43.1205 121.702 42.2163 122.314C40.2884 123.631 38.121 122.9 37.1903 120.744C36.3127 118.735 36.5653 116.739 37.6291 114.982C40.1687 110.831 44.0247 108.436 48.6784 107.318C50.3272 106.919 50.7527 107.225 51.5239 108.662C52.5876 107.438 53.6114 107.185 55.8054 107.677C55.566 108.17 55.3666 108.622 55.1139 109.061C53.1062 112.574 51.0718 116.06 49.1172 119.586C48.705 120.345 48.1599 121.396 49.0507 122.048C49.9416 122.713 50.7793 121.902 51.3776 121.263C53.1859 119.334 54.9677 117.378 56.6696 115.342C58.3184 113.372 59.8209 111.283 61.4298 109.287C61.935 108.662 62.5733 108.103 63.2381 107.664C64.7805 106.653 66.5223 107.464 66.5622 109.327C66.5888 110.751 66.2165 112.201 65.9905 113.798C66.3761 113.332 66.8414 112.933 67.1207 112.428C68.0514 110.685 69.0885 109.021 70.7373 107.864C71.4553 107.358 72.3994 106.626 73.1174 107.558C73.8221 108.449 72.9578 109.274 72.2797 109.82C71.0431 110.818 69.7401 111.722 68.4237 112.614C67.2802 113.399 66.6819 115.262 67.2802 116.499C67.719 117.391 68.5966 117.67 69.3412 117.271C70.4315 116.699 71.4021 115.874 72.3462 115.062C72.9046 114.583 73.3301 113.945 73.8221 113.372L74.1279 113.585C74.0082 113.851 73.9551 114.171 73.7689 114.37C72.7717 115.395 71.8143 116.446 70.7107 117.351C69.7268 118.149 68.4636 118.336 67.3733 117.697C66.3495 117.098 66.3362 115.94 66.4691 114.836C66.4824 114.69 66.4691 114.53 66.2165 114.211C65.5118 115.062 64.7273 115.874 64.1024 116.779C62.9722 118.429 61.9217 120.132 60.8846 121.848C60.4591 122.567 59.9805 122.913 59.1029 122.766C58.4381 122.66 57.7466 122.74 56.6829 122.74V122.727ZM38.839 120.331C39.2246 121.037 39.3975 121.875 39.823 122.035C40.3548 122.234 41.0994 121.928 41.7377 121.769C41.9903 121.702 42.2296 121.476 42.4291 121.276C45.5139 118.269 48.0801 114.876 50.0879 111.057C50.5798 110.126 51.1915 108.915 50.2474 108.13C49.2901 107.331 48.1466 108.103 47.2424 108.742C44.4502 110.751 42.2961 113.346 40.5809 116.286C39.8629 117.524 39.4241 118.934 38.839 120.305V120.331Z" fill="white"/>
<path d="M152.245 21.3077C151.155 21.3343 150.53 20.536 150.304 19.2719C150.091 17.9945 149.851 16.7038 149.386 15.5063C148.681 13.7232 147.059 13.0712 145.317 12.7785C144.294 12.6055 143.775 12.0334 143.748 11.062C143.722 10.0375 144.413 9.51851 145.317 9.31892C148.562 8.57378 149.812 7.18995 150.184 3.89003C150.237 3.45093 150.277 2.99852 150.33 2.54612C150.463 1.53485 151.008 0.842935 152.059 0.803016C153.109 0.776404 153.668 1.44171 153.84 2.45297C154 3.37109 154.133 4.30252 154.332 5.22064C154.878 7.62905 156.3 8.91974 158.733 9.25239C159.678 9.38545 160.382 9.81125 160.475 10.8225C160.568 11.7406 160.116 12.3926 159.225 12.6854C155.104 14.016 154.186 15.1204 153.827 19.4183C153.734 20.5493 153.255 21.148 152.232 21.2811L152.245 21.3077ZM152.218 12.6588C153.371 11.5233 153.371 10.4366 152.218 9.39876C150.436 10.9689 150.436 11.0221 152.218 12.6588Z" fill="white"/>
<path d="M106.771 10.8888C106.731 11.9267 106.079 12.4589 105.122 12.6984C103.3 13.1508 102.503 14.1222 102.343 16.0383C102.303 16.4774 102.33 17.0628 102.064 17.3157C101.559 17.8213 100.88 18.4201 100.242 18.46C99.3913 18.5132 98.8062 17.7814 98.6732 16.8632C98.5802 16.2246 98.5536 15.5593 98.3807 14.9339C98.035 13.7097 97.3303 12.8448 95.9342 12.7251C94.8439 12.6319 94.1657 11.94 94.1258 10.9021C94.086 9.91746 94.7907 9.38522 95.7347 9.19894C97.5696 8.83967 98.3807 7.61551 98.5935 5.8458C98.8195 4.02286 99.378 3.26441 100.442 3.25111C101.492 3.2378 102.21 4.23576 102.343 5.95225C102.489 7.76188 103.207 8.62677 105.016 9.10579C105.96 9.35861 106.691 9.7711 106.744 10.9021L106.771 10.8888Z" fill="white"/>
<path d="M237.821 104.936C236.957 104.936 236.425 104.564 236.385 103.659C236.345 102.435 237.808 100.984 239.071 100.971C239.948 100.971 240.454 101.357 240.467 102.262C240.48 103.606 239.151 104.936 237.808 104.936H237.821Z" fill="white"/>
<path d="M208.914 102.315C208.914 102.435 208.914 102.555 208.888 102.675C208.702 103.939 207.359 105.016 206.122 104.937C205.152 104.87 204.925 104.245 204.965 103.42C205.032 102.156 206.308 100.945 207.558 100.958C208.449 100.958 208.901 101.411 208.928 102.302L208.914 102.315Z" fill="white"/>
<path d="M118.246 27.9873C118.605 28.3732 118.897 28.6526 119.15 28.9586C119.988 29.9566 119.668 31.54 118.432 31.8062C117.993 31.8993 117.302 31.2074 116.863 30.755C116.65 30.5288 116.57 29.9034 116.73 29.6506C117.089 29.0784 117.647 28.626 118.246 27.9873Z" fill="white"/>
</g>
<defs>
<clipPath id="clip0_2_243">
<rect width="254.442" height="124.998" fill="white" transform="translate(0 0.82959)"/>
</clipPath>
</defs>
</svg>
